# MagicaVoxel @ Ephtracy

# group
o 

# material
mtllib bridge.mtl
usemtl palette

# normals
vn -1 0 0
vn 1 0 0
vn 0 0 1
vn 0 0 -1
vn 0 -1 0
vn 0 1 0

# texcoords
vt 0.373047 0.5
vt 0.537109 0.5
vt 0.826172 0.5
vt 0.884766 0.5

# verts
v 0 2 -3.2
v 0 2 -3.7
v 0 2 -4
v 0 6 -3.2
v 0 6 -3.7
v 0 6 -4
v 0.7 3.1 -3.1
v 0.7 3.1 -3.2
v 0.7 4.8 -3.1
v 0.7 4.8 -3.2
v 1 3.1 -3
v 1 3.1 -3.1
v 1 4.7 -3
v 1 4.7 -3.1
v 1.2 3.4 -2.9
v 1.2 3.4 -3
v 1.2 4.4 -2.9
v 1.2 4.4 -3
v 2 3.4 -2.7
v 2 3.4 -2.9
v 2 4.4 -2.7
v 2 4.4 -2.9
v 2.6 3.4 -2.5
v 2.6 3.4 -2.7
v 2.6 4.4 -2.5
v 2.6 4.4 -2.7
v 3.2 2 -2.4
v 3.2 2 -3.4
v 3.2 3.4 -2.5
v 3.2 3.4 -2.8
v 3.2 4.4 -2.5
v 3.2 4.4 -2.8
v 3.2 6 -2.4
v 3.2 6 -3.4
v 1.5 2 -3.2
v 1.5 2 -3.4
v 1.5 3.1 -3.2
v 1.5 3.1 -3.4
v 1.5 4.7 -3.1
v 1.5 4.7 -3.2
v 1.5 4.7 -3.4
v 1.5 4.8 -3.1
v 1.5 4.8 -3.2
v 1.5 6 -3.2
v 1.5 6 -3.4
v 1.7 3.1 -3
v 1.7 3.1 -3.4
v 1.7 3.4 -3
v 1.7 3.4 -3.1
v 1.7 4.4 -3
v 1.7 4.4 -3.1
v 1.7 4.7 -3
v 1.7 4.7 -3.4
v 2.5 3.4 -3
v 2.5 3.4 -3.1
v 2.5 4.4 -3
v 2.5 4.4 -3.1
v 2.6 3.4 -2.9
v 2.6 3.4 -3
v 2.6 4.4 -2.9
v 2.6 4.4 -3
v 2.8 3.4 -2.8
v 2.8 3.4 -2.9
v 2.8 4.4 -2.8
v 2.8 4.4 -2.9
v 4 2 -2.4
v 4 2 -3.7
v 4 2 -4
v 4 6 -2.4
v 4 6 -3.7
v 4 6 -4
v 3.2 2 -2.4
v 3.2 6 -2.4
v 4 2 -2.4
v 4 6 -2.4
v 2.6 3.4 -2.5
v 2.6 4.4 -2.5
v 3.2 3.4 -2.5
v 3.2 4.4 -2.5
v 2 3.4 -2.7
v 2 4.4 -2.7
v 2.6 3.4 -2.7
v 2.6 4.4 -2.7
v 1.2 3.4 -2.9
v 1.2 4.4 -2.9
v 2 3.4 -2.9
v 2 4.4 -2.9
v 1 3.1 -3
v 1 4.7 -3
v 1.2 3.4 -3
v 1.2 4.4 -3
v 1.7 3.1 -3
v 1.7 3.4 -3
v 1.7 4.4 -3
v 1.7 4.7 -3
v 0.7 3.1 -3.1
v 0.7 4.8 -3.1
v 1 3.1 -3.1
v 1 4.7 -3.1
v 1.5 4.7 -3.1
v 1.5 4.8 -3.1
v 0 2 -3.2
v 0 6 -3.2
v 0.7 3.1 -3.2
v 0.7 4.8 -3.2
v 1.5 2 -3.2
v 1.5 3.1 -3.2
v 1.5 4.8 -3.2
v 1.5 6 -3.2
v 1.5 2 -3.4
v 1.5 3.1 -3.4
v 1.5 4.7 -3.4
v 1.5 6 -3.4
v 1.7 3.1 -3.4
v 1.7 4.7 -3.4
v 3.2 2 -3.4
v 3.2 6 -3.4
v 2.8 3.4 -2.8
v 2.8 4.4 -2.8
v 3.2 3.4 -2.8
v 3.2 4.4 -2.8
v 2.6 3.4 -2.9
v 2.6 4.4 -2.9
v 2.8 3.4 -2.9
v 2.8 4.4 -2.9
v 2.5 3.4 -3
v 2.5 4.4 -3
v 2.6 3.4 -3
v 2.6 4.4 -3
v 1.7 3.4 -3.1
v 1.7 4.4 -3.1
v 2.5 3.4 -3.1
v 2.5 4.4 -3.1
v 0 2 -4
v 0 6 -4
v 4 2 -4
v 4 6 -4
v 3.2 2 -2.4
v 4 2 -2.4
v 0 2 -3.2
v 1.5 2 -3.2
v 1.5 2 -3.4
v 3.2 2 -3.4
v 0 2 -3.7
v 1.5 2 -3.7
v 3.2 2 -3.7
v 4 2 -3.7
v 0 2 -4
v 4 2 -4
v 1 3.1 -3
v 1.7 3.1 -3
v 0.7 3.1 -3.1
v 1 3.1 -3.1
v 0.7 3.1 -3.2
v 1.5 3.1 -3.2
v 1.5 3.1 -3.4
v 1.7 3.1 -3.4
v 2.6 3.4 -2.5
v 3.2 3.4 -2.5
v 2 3.4 -2.7
v 2.6 3.4 -2.7
v 2.8 3.4 -2.8
v 3.2 3.4 -2.8
v 1.2 3.4 -2.9
v 2 3.4 -2.9
v 2.6 3.4 -2.9
v 2.8 3.4 -2.9
v 1.2 3.4 -3
v 1.7 3.4 -3
v 2.5 3.4 -3
v 2.6 3.4 -3
v 1.7 3.4 -3.1
v 2.5 3.4 -3.1
v 2.6 4.4 -2.5
v 3.2 4.4 -2.5
v 2 4.4 -2.7
v 2.6 4.4 -2.7
v 2.8 4.4 -2.8
v 3.2 4.4 -2.8
v 1.2 4.4 -2.9
v 2 4.4 -2.9
v 2.6 4.4 -2.9
v 2.8 4.4 -2.9
v 1.2 4.4 -3
v 1.7 4.4 -3
v 2.5 4.4 -3
v 2.6 4.4 -3
v 1.7 4.4 -3.1
v 2.5 4.4 -3.1
v 1 4.7 -3
v 1.7 4.7 -3
v 1 4.7 -3.1
v 1.5 4.7 -3.1
v 1.5 4.7 -3.2
v 1.5 4.7 -3.4
v 1.7 4.7 -3.4
v 0.7 4.8 -3.1
v 1.5 4.8 -3.1
v 0.7 4.8 -3.2
v 1.5 4.8 -3.2
v 3.2 6 -2.4
v 4 6 -2.4
v 0 6 -3.2
v 1.5 6 -3.2
v 1.5 6 -3.4
v 3.2 6 -3.4
v 0 6 -3.7
v 1.5 6 -3.7
v 3.2 6 -3.7
v 4 6 -3.7
v 0 6 -4
v 4 6 -4

# faces
f 4/4/1 2/4/1 1/4/1
f 5/1/1 3/1/1 2/1/1
f 5/4/1 2/4/1 4/4/1
f 6/1/1 3/1/1 5/1/1
f 9/2/1 8/2/1 7/2/1
f 10/2/1 8/2/1 9/2/1
f 13/2/1 12/2/1 11/2/1
f 14/2/1 12/2/1 13/2/1
f 17/2/1 16/2/1 15/2/1
f 18/2/1 16/2/1 17/2/1
f 21/2/1 20/2/1 19/2/1
f 22/2/1 20/2/1 21/2/1
f 25/2/1 24/2/1 23/2/1
f 26/2/1 24/2/1 25/2/1
f 29/4/1 28/4/1 27/4/1
f 30/4/1 28/4/1 29/4/1
f 31/4/1 29/4/1 27/4/1
f 32/4/1 28/4/1 30/4/1
f 33/4/1 31/4/1 27/4/1
f 33/4/1 32/4/1 31/4/1
f 34/4/1 28/4/1 32/4/1
f 34/4/1 32/4/1 33/4/1
f 35/4/2 36/4/2 37/4/2
f 37/4/2 36/4/2 38/4/2
f 39/2/2 40/2/2 42/2/2
f 40/4/2 41/4/2 43/4/2
f 42/2/2 40/2/2 43/2/2
f 43/4/2 41/4/2 44/4/2
f 44/4/2 41/4/2 45/4/2
f 46/2/2 47/2/2 48/2/2
f 48/2/2 47/2/2 49/2/2
f 49/2/2 47/2/2 51/2/2
f 50/2/2 51/2/2 52/2/2
f 51/2/2 47/2/2 53/2/2
f 52/2/2 51/2/2 53/2/2
f 54/2/2 55/2/2 56/2/2
f 56/2/2 55/2/2 57/2/2
f 58/2/2 59/2/2 60/2/2
f 60/2/2 59/2/2 61/2/2
f 62/2/2 63/2/2 64/2/2
f 64/2/2 63/2/2 65/2/2
f 66/4/2 67/4/2 69/4/2
f 67/1/2 68/1/2 70/1/2
f 69/4/2 67/4/2 70/4/2
f 70/1/2 68/1/2 71/1/2
f 74/4/3 73/4/3 72/4/3
f 75/4/3 73/4/3 74/4/3
f 78/2/3 77/2/3 76/2/3
f 79/2/3 77/2/3 78/2/3
f 82/2/3 81/2/3 80/2/3
f 83/2/3 81/2/3 82/2/3
f 86/2/3 85/2/3 84/2/3
f 87/2/3 85/2/3 86/2/3
f 90/2/3 89/2/3 88/2/3
f 91/2/3 89/2/3 90/2/3
f 92/2/3 90/2/3 88/2/3
f 93/2/3 90/2/3 92/2/3
f 94/2/3 89/2/3 91/2/3
f 95/2/3 89/2/3 94/2/3
f 98/2/3 97/2/3 96/2/3
f 99/2/3 97/2/3 98/2/3
f 100/2/3 97/2/3 99/2/3
f 101/2/3 97/2/3 100/2/3
f 104/4/3 103/4/3 102/4/3
f 105/4/3 103/4/3 104/4/3
f 106/4/3 104/4/3 102/4/3
f 107/4/3 104/4/3 106/4/3
f 108/4/3 103/4/3 105/4/3
f 109/4/3 103/4/3 108/4/3
f 114/3/3 111/3/3 110/3/3
f 115/3/3 113/3/3 112/3/3
f 116/3/3 114/3/3 110/3/3
f 116/3/3 115/3/3 114/3/3
f 117/3/3 113/3/3 115/3/3
f 117/3/3 115/3/3 116/3/3
f 118/2/4 119/2/4 120/2/4
f 120/2/4 119/2/4 121/2/4
f 122/2/4 123/2/4 124/2/4
f 124/2/4 123/2/4 125/2/4
f 126/2/4 127/2/4 128/2/4
f 128/2/4 127/2/4 129/2/4
f 130/2/4 131/2/4 132/2/4
f 132/2/4 131/2/4 133/2/4
f 134/1/4 135/1/4 136/1/4
f 136/1/4 135/1/4 137/1/4
f 142/4/5 141/4/5 140/4/5
f 143/4/5 139/4/5 138/4/5
f 144/4/5 142/4/5 140/4/5
f 145/3/5 143/3/5 142/3/5
f 145/4/5 142/4/5 144/4/5
f 146/4/5 139/4/5 143/4/5
f 146/3/5 143/3/5 145/3/5
f 147/4/5 139/4/5 146/4/5
f 148/1/5 145/1/5 144/1/5
f 148/1/5 146/1/5 145/1/5
f 148/1/5 147/1/5 146/1/5
f 149/1/5 147/1/5 148/1/5
f 153/2/5 151/2/5 150/2/5
f 154/2/5 153/2/5 152/2/5
f 155/2/5 151/2/5 153/2/5
f 155/2/5 153/2/5 154/2/5
f 156/2/5 151/2/5 155/2/5
f 157/2/5 151/2/5 156/2/5
f 161/2/5 159/2/5 158/2/5
f 162/2/5 159/2/5 161/2/5
f 162/2/5 161/2/5 160/2/5
f 163/2/5 159/2/5 162/2/5
f 165/2/5 162/2/5 160/2/5
f 166/2/5 162/2/5 165/2/5
f 167/2/5 162/2/5 166/2/5
f 168/2/5 165/2/5 164/2/5
f 168/2/5 166/2/5 165/2/5
f 169/2/5 166/2/5 168/2/5
f 170/2/5 166/2/5 169/2/5
f 171/2/5 166/2/5 170/2/5
f 172/2/5 170/2/5 169/2/5
f 173/2/5 170/2/5 172/2/5
f 174/2/6 175/2/6 177/2/6
f 177/2/6 175/2/6 178/2/6
f 176/2/6 177/2/6 178/2/6
f 178/2/6 175/2/6 179/2/6
f 176/2/6 178/2/6 181/2/6
f 181/2/6 178/2/6 182/2/6
f 182/2/6 178/2/6 183/2/6
f 180/2/6 181/2/6 184/2/6
f 181/2/6 182/2/6 184/2/6
f 184/2/6 182/2/6 185/2/6
f 185/2/6 182/2/6 186/2/6
f 186/2/6 182/2/6 187/2/6
f 185/2/6 186/2/6 188/2/6
f 188/2/6 186/2/6 189/2/6
f 190/2/6 191/2/6 192/2/6
f 192/2/6 191/2/6 193/2/6
f 193/2/6 191/2/6 194/2/6
f 194/2/6 191/2/6 195/2/6
f 195/2/6 191/2/6 196/2/6
f 197/2/6 198/2/6 199/2/6
f 199/2/6 198/2/6 200/2/6
f 203/4/6 204/4/6 205/4/6
f 201/4/6 202/4/6 206/4/6
f 203/4/6 205/4/6 207/4/6
f 205/3/6 206/3/6 208/3/6
f 207/4/6 205/4/6 208/4/6
f 206/4/6 202/4/6 209/4/6
f 208/3/6 206/3/6 209/3/6
f 209/4/6 202/4/6 210/4/6
f 207/1/6 208/1/6 211/1/6
f 208/1/6 209/1/6 211/1/6
f 209/1/6 210/1/6 211/1/6
f 211/1/6 210/1/6 212/1/6
